<svg xmlns="http://www.w3.org/2000/svg" width="980" height="560" viewBox="0 0 980 560" role="img">
  <style>
    text { font-family: Inter, Arial, sans-serif; fill: #24292f; }
    .title { font-size: 30px; font-weight: 700; }
    .label { font-size: 18px; font-weight: 700; }
    .small { font-size: 15px; fill: #57606a; }
    .axis { stroke: #8c959f; stroke-width: 2; }
    .grid { stroke: #eaeef2; stroke-width: 1; }
    .line { fill: none; stroke: #2f80ed; stroke-width: 6; stroke-linecap: round; stroke-linejoin: round; }
    .dash { stroke: #27ae60; stroke-width: 3; stroke-dasharray: 9 9; }
    .box { fill: #ffffff; stroke: #d0d7de; stroke-width: 2; rx: 8; }
    .blue { fill: #2f80ed; }
    .orange { fill: #f2994a; }
    .green { fill: #27ae60; }
    .red { fill: #eb5757; }
    .muted { fill: #8c959f; }
  </style>
  <rect width="100%" height="100%" fill="#ffffff" />
  
  <text x="490" y="48" text-anchor="middle" class="title">Silhouette Plot Examples</text>
  <text x="265" y="96" text-anchor="middle" class="label">Good Clustering</text><text x="715" y="96" text-anchor="middle" class="label">Poor Clustering</text>
  <line x1="115" y1="385" x2="430" y2="385" class="axis" /><line x1="115" y1="125" x2="115" y2="385" class="axis" />
  <rect x="190" y="150" width="205" height="38" class="blue" opacity="0.85" /><rect x="175" y="220" width="220" height="38" class="orange" opacity="0.85" /><rect x="205" y="290" width="190" height="38" class="green" opacity="0.85" />
  <line x1="365" y1="125" x2="365" y2="385" class="dash" />
  <line x1="565" y1="385" x2="880" y2="385" class="axis" /><line x1="680" y1="125" x2="680" y2="385" class="axis" />
  <rect x="610" y="150" width="155" height="38" class="blue" opacity="0.85" /><rect x="625" y="220" width="105" height="38" class="orange" opacity="0.85" /><rect x="590" y="290" width="85" height="38" class="red" opacity="0.85" />
  <line x1="735" y1="125" x2="735" y2="385" class="dash" />
  <text x="265" y="430" text-anchor="middle" class="small">Most values are positive and wide.</text>
  <text x="715" y="430" text-anchor="middle" class="small">Some values are near zero or negative.</text>
  
</svg>
